<?xml version="1.0" encoding="UTF-8" standalone="no"?><svg xmlns="http://www.w3.org/2000/svg" xmlns:xlink="http://www.w3.org/1999/xlink" fill="#000000" height="511.6" preserveAspectRatio="xMidYMid meet" version="1" viewBox="-777.4 -786.6 483.8 511.6" width="483.8" zoomAndPan="magnify"><g id="change1_1"><path d="M-729.9-443.131c10.753-58.436-47.522-111.239-42.517-170.445 c1.95-23.077,13.692-44.539,29.363-61.593c15.671-17.053,35.14-30.148,55.03-42.021c13.634-8.148,28.606-16.049,44.452-14.885 c26.176,1.92,45.994,27.792,72.185,29.319c25.929,1.513,46.067-20.618,65.827-37.468c33.335-28.432,78.078-45.82,121.308-38.661 c43.229,7.159,82.531,42.589,86.547,86.227c3.536,38.5-18.799,74.135-40.785,105.942c-21.985,31.807-45.514,66.146-44.801,104.808 c0.32,17.955,5.979,35.474,6.562,53.43c0.945,29.494-12.223,58.348-32.084,80.173c-19.862,21.826-45.98,37.177-73.276,48.381 c-39.928,16.369-84.263,24.431-126.619,16.137c-42.357-8.294-82.283-34.471-101.083-73.32 C-723.702-385.846-734.382-418.744-729.9-443.131z" fill="#ffffff" stroke="#000000" stroke-miterlimit="10"/></g></svg>