<?xml version="1.0" encoding="UTF-8" standalone="no"?><svg xmlns="http://www.w3.org/2000/svg" xmlns:xlink="http://www.w3.org/1999/xlink" fill="#000000" height="26.2" preserveAspectRatio="xMidYMid meet" version="1" viewBox="3.5 2.1 52.9 26.2" width="52.9" zoomAndPan="magnify"><defs><linearGradient gradientTransform="matrix(.97802 0 0 .88645 1.664 16.174)" gradientUnits="userSpaceOnUse" id="a" x1="30.241" x2="29.796" xlink:actuate="onLoad" xlink:show="other" xlink:type="simple" y1="46.139" y2="-15.612"><stop offset="0" stop-color="#fbefe1"/><stop offset="0.5" stop-color="#fbefe1" stop-opacity="0.498"/><stop offset="1" stop-color="#ffffff"/></linearGradient></defs><g id="change1_1"><path d="m9.3251 2.1411h41.257a5.81 5.81 0 0 1 5.81 5.81v14.531a5.81 5.81 0 0 1 -5.81 5.81h-41.257a5.81 5.81 0 0 1 -5.81 -5.81v-14.531a5.81 5.81 0 0 1 5.81 -5.81" fill="#fbefe1"/></g><path d="m9.116 2.3348h41.415c2.8532 0 5.1502 2.297 5.1502 5.1502-10.388-0.13021-20.087-0.64443-27.069 7.4444-8.9214 11.362-23.742 11.518-24.646 5.4368v-12.881c0-2.8532 2.297-5.1502 5.1502-5.1502z" fill="url(#a)"/><text font-family="Bitstream Vera Sans" font-size="28" x="-16.784" y="0.692"/></svg>