<?xml version="1.0" encoding="UTF-8" standalone="no"?><svg xmlns="http://www.w3.org/2000/svg" xmlns:xlink="http://www.w3.org/1999/xlink" fill="#ffffff" height="2623.1" preserveAspectRatio="xMidYMid meet" version="1" viewBox="-15.0 0.0 3031.4 2623.1" width="3031.4" zoomAndPan="magnify"><defs><clipPath id="a"><path d="M 206 256 L 3016.378906 256 L 3016.378906 2623.109375 L 206 2623.109375 Z M 206 256"/></clipPath></defs><g><g clip-path="url(#a)" id="change1_1"><path d="M 1001.347656 1462.460938 C 1288.058594 1462.742188 1583.296875 1505.511719 1923.960938 1116.679688 C 2129.742188 881.808594 2253.710938 464.40625 2457.621094 335.421875 C 2612.792969 237.25 2788.613281 222.964844 2907.472656 334.035156 C 3070.765625 486.59375 3103.964844 815.082031 2622.394531 936.175781 C 2374.941406 998.394531 2219.308594 1080.792969 2119.046875 1174.132812 C 2000.609375 1284.359375 1959.4375 1409.863281 1935.453125 1535.402344 C 1847.359375 1996.722656 1618.199219 2476.160156 1098.289062 2601.378906 C 650.335938 2709.28125 239.253906 2397.460938 208.652344 2062.628906 C 171.160156 1652.363281 659.691406 1462.121094 1001.347656 1462.460938" fill="inherit" fill-rule="evenodd"/></g><g id="change1_2"><path d="M 1412.460938 272.40625 C 1677.105469 272.40625 1869.488281 486.941406 1842.144531 751.601562 C 1814.816406 1016.253906 1578.117188 1230.789062 1313.460938 1230.789062 C 1048.8125 1230.789062 856.429688 1016.253906 883.769531 751.601562 C 911.105469 486.941406 1147.8125 272.40625 1412.460938 272.40625" fill="inherit" fill-rule="evenodd"/></g><g id="change1_3"><path d="M 321.972656 441.679688 C 482.359375 441.679688 598.949219 571.695312 582.382812 732.09375 C 565.8125 892.472656 422.363281 1022.503906 261.976562 1022.503906 C 101.589844 1022.503906 -15 892.472656 1.570312 732.09375 C 18.136719 571.695312 161.585938 441.679688 321.972656 441.679688" fill="inherit" fill-rule="evenodd"/></g><g id="change1_4"><path d="M 2087.964844 0 C 2144.082031 0 2184.890625 45.511719 2179.082031 101.625 C 2173.289062 157.757812 2123.097656 203.25 2066.964844 203.25 C 2010.851562 203.25 1970.039062 157.757812 1975.847656 101.625 C 1981.644531 45.511719 2031.835938 0 2087.964844 0" fill="inherit" fill-rule="evenodd"/></g></g></svg>